Nederlands of Engels gesproken
English or Dutch spoken

Met bekende Nederlandse stemmen
In plaats van het afschrikken van menig dorpsbewoner is Shrek (Mike Myers) inmiddels een echte familieman geworden. Shrek komt in contact met de gladde praatjesmaker Repelsteeltje. Hierdoor komt hij tot zijn schrik terecht in een alternatieve versie van zijn wereld, Far Far Away, waar er gejaagd wordt op Ogres en hij Fiona (Cameron Diaz) helemaal nooit ontmoet heeft. Aan hem de taak om zijn vertrouwde wereld weer terug te krijgen.

With the voices of Mike Myers, Cameron Diaz and Eddie Murphy
Rumpelstiltskin tricks a mid-life crisis burdened Shrek into allowing himself to be erased from existence and cast in a dark alternate timeline where Rumpel rules supreme.

------------------ Dutch Friends ------------------
You can find my Friends at: http://www.Film-Test.nl 
------ They got my dutchs subs ---- and more ------

General:

Complete name                    : Shrek Forever After\Shrek Forever After.avi
Format                           : AVI
Format/Info                      : Audio Video Interleave
File size                        : 1.67 GiB
Duration                         : 1h 29mn
Overall bit rate                 : 2 669 Kbps

Video:

Format                           : MPEG-4 Visual
Format profile                   : Simple@L3
Format settings, BVOP            : No
Format settings, QPel            : No
Format settings, GMC             : No warppoints
Format settings, Matrix          : Default (H.263)
Codec ID                         : XVID
Codec ID/Hint                    : XviD
Duration                         : 1h 29mn
Bit rate                         : 1 757 Kbps
Width                            : 720 pixels
Height                           : 500 pixels
Display aspect ratio             : 1.440
Frame rate                       : 25.000 fps
Color space                      : YUV
Chroma subsampling               : 4:2:0
Bit depth                        : 8 bits
Scan type                        : Progressive
Bits/(Pixel*Frame)               : 0.195
Stream size                      : 1.10 GiB (66%)
Writing library                  : XviD 1.1.2 (UTC 2006-11-01)

Audio's:

Format                           : AC-3
Format/Info                      : Audio Coding 3
Mode extension                   : CM (complete main)
Codec ID                         : 2000
Duration                         : 1h 29mn
Bit rate mode                    : Constant
Bit rate                         : 448 Kbps
Channel(s)                       : 6 channels
Channel positions                : Front: L C R, Side: L R, LFE
Sampling rate                    : 48.0 KHz
Bit depth                        : 16 bits
Stream size                      : 286 MiB (17%)
Alignment                        : Aligned on interleaves
Interleave, duration             : 32 ms (0.80 video frame)
Interleave, preload duration     : 32 ms


